<svg height="512" viewBox="0 0 64 64" width="512" xmlns="http://www.w3.org/2000/svg"><g id="flat"><path d="m19 25a4 4 0 0 1 -4-4v-4h2v4a2 2 0 0 0 2 2z" fill="#ad6327"/><path d="m26 12h-10v6h3l3 3h8v-3h4c0-3.314-4-6-8-6z" fill="#ffd782"/><path d="m22 21h8v4h-8z" fill="#f9bb4b"/><path d="m16 18-4-1v-4l4-1z" fill="#f9bb4b"/><path d="m30 25h-8l-6 9v27h20v-27z" fill="#e33e5c"/><circle cx="26" cy="38" fill="#ffd782" r="5"/><path d="m34 40h20a2 2 0 0 1 2 2v8a0 0 0 0 1 0 0h-24a0 0 0 0 1 0 0v-8a2 2 0 0 1 2-2z" fill="#2d75bb"/><path d="m44 3a2 2 0 0 1 2 2v31a0 0 0 0 1 0 0h-4a0 0 0 0 1 0 0v-31a2 2 0 0 1 2-2z" fill="#ad6327"/><path d="m50 40h-12l2-4h8z" fill="#6caade"/><path d="m42 23h4v6h-4z" fill="#f9bb4b"/><path d="m32 50h4v11h-4z" fill="#ffd782"/><path d="m36 50h4v11h-4z" fill="#f9bb4b"/><path d="m40 50h4v11h-4z" fill="#ffd782"/><path d="m44 50h4v11h-4z" fill="#f9bb4b"/><path d="m48 50h4v11h-4z" fill="#ffd782"/><path d="m52 50h4v11h-4z" fill="#f9bb4b"/><path d="m51 43h2v2h-2z" fill="#f4f4e6"/><path d="m47 43h2v2h-2z" fill="#f4f4e6"/><path d="m24 55h4v6h-4z" fill="#ffd782" transform="matrix(-1 0 0 -1 52 116)"/><path d="m20 55h4v6h-4z" fill="#f9bb4b" transform="matrix(-1 0 0 -1 44 116)"/><path d="m16 55h4v6h-4z" fill="#ffd782" transform="matrix(-1 0 0 -1 36 116)"/><path d="m12 55h4v6h-4z" fill="#f9bb4b" transform="matrix(-1 0 0 -1 28 116)"/><path d="m8 55h4v6h-4z" fill="#ffd782" transform="matrix(-1 0 0 -1 20 116)"/><path d="m24 51-2-3-10.4-2.187a1.919 1.919 0 0 1 -1.6-1.893 1.919 1.919 0 0 1 2.321-1.877l11.679 2.957 4 5v5h-20v-4z" fill="#6caade"/></g></svg>